<svg xmlns="http://www.w3.org/2000/svg" viewBox="0 0 160 160" width="160" height="160">
	<style>
		tspan { white-space:pre }
		.shp0 { fill: #efd176 } 
		.shp1 { fill: #c5ebff } 
		.shp2 { fill: #a5defb } 
		.shp3 { fill: #2d50e6 } 
		.shp4 { fill: #33a0f8 } 
		.shp5 { fill: #e1b89a } 
		.shp6 { fill: #d2996f } 
		.shp7 { fill: #ff0202 } 
		.shp8 { fill: #f7ef87 } 
		.shp9 { fill: #000000 } 
	</style>
	<g id="Layer">
		<path id="Layer" fill-rule="evenodd" class="shp0" d="M94.39 60.12C92.76 60.12 91.2 59.46 90.07 58.28C88.94 57.1 88.34 55.52 88.4 53.89C88.92 40.59 94.18 28.35 103.21 19.41C111.53 11.18 122.3 6.46 132.75 6.46C142.58 6.46 150.57 14.46 150.57 24.28C150.57 34.91 143.79 44.48 131.48 51.22C121.15 56.88 107.64 60.12 94.39 60.12ZM111.65 27.94C106.28 33.25 102.67 40.15 101.16 47.8C110.14 46.96 118.82 44.47 125.71 40.7C136.9 34.57 138.57 27.78 138.57 24.28C138.57 21.07 135.96 18.46 132.75 18.46C125.54 18.46 117.65 22.01 111.65 27.94Z" />
		<path id="Layer" class="shp1" d="M58.56 154.35L100.79 154.35C106.31 154.35 111.56 151.88 114.99 147.57C121.13 139.86 124.8 130.1 124.8 119.48C124.8 102.2 115.09 87.19 100.83 79.61C98.75 78.5 97.44 76.33 97.44 73.96L97.44 51.11L61.91 51.11L61.91 73.96C61.91 76.33 60.61 78.5 58.52 79.61C44.26 87.19 34.55 102.2 34.55 119.48C34.55 130.1 38.22 139.86 44.36 147.57C47.8 151.88 53.04 154.35 58.56 154.35L58.56 154.35Z" />
		<path id="Layer" class="shp2" d="M58.06 79.86C44.05 87.52 34.55 102.39 34.55 119.48C34.55 130.1 38.22 139.86 44.36 147.57C47.79 151.88 53.04 154.35 58.56 154.35L79.66 154.35C57.55 140.46 52.22 101.6 58.06 79.86L58.06 79.86Z" />
		<path id="Layer" class="shp3" d="M75.13 115.34L75.13 137.56L121.03 137.56C123.45 132.02 124.8 125.91 124.8 119.48C124.8 107.64 103.94 98.95 75.13 115.34L75.13 115.34Z" />
		<path id="Layer" class="shp2" d="M100.53 51.11L58.82 51.11C56.04 51.11 53.78 48.85 53.78 46.06L53.78 38.04C53.78 35.25 56.04 32.99 58.82 32.99L100.53 32.99C103.32 32.99 105.57 35.25 105.57 38.04L105.57 46.06C105.57 48.85 103.32 51.11 100.53 51.11Z" />
		<path id="Layer" class="shp4" d="M58.56 154.35L100.79 154.35C106.31 154.35 111.56 151.88 114.99 147.57C121.13 139.86 124.8 130.1 124.8 119.48C124.8 144.32 74 95.53 35.43 110.59C34.85 113.47 34.55 116.44 34.55 119.48C34.55 130.1 38.22 139.86 44.36 147.57C47.8 151.88 53.04 154.35 58.56 154.35L58.56 154.35Z" />
		<path id="Layer" class="shp4" d="M58.56 154.35L100.79 154.35C106.31 154.35 111.56 151.88 114.99 147.57C121.13 139.86 124.8 130.1 124.8 119.48C124.8 144.32 74 95.53 35.43 110.59C34.85 113.47 34.55 116.44 34.55 119.48C34.55 130.1 38.22 139.86 44.36 147.57C47.8 151.88 53.04 154.35 58.56 154.35L58.56 154.35Z" />
		<g id="Layer">
			<path id="Layer" class="shp3" d="M35.43 110.59C34.85 113.47 34.55 116.44 34.55 119.48C34.55 130.1 38.22 139.86 44.36 147.57C47.8 151.88 53.04 154.35 58.56 154.35L79.66 154.35C65.45 145.42 58.17 126.19 56.33 107.81C49.22 107.29 42.14 107.97 35.43 110.59L35.43 110.59Z" />
			<path id="Layer" class="shp3" d="M99.97 143.88C98.72 143.88 97.72 142.87 97.72 141.63C97.72 140.38 98.72 139.38 99.97 139.38C101.21 139.38 102.22 140.38 102.22 141.63C102.22 142.87 101.21 143.88 99.97 143.88Z" />
			<path id="Layer" class="shp3" d="M83.88 131.13C82.64 131.13 81.63 130.13 81.63 128.88C81.63 127.64 82.64 126.63 83.88 126.63C85.13 126.63 86.13 127.64 86.13 128.88C86.13 130.13 85.13 131.13 83.88 131.13Z" />
		</g>
		<path id="Layer" class="shp4" d="M54.1 136.7C52.86 136.7 51.85 135.7 51.85 134.45C51.85 133.21 52.86 132.2 54.1 132.2C55.35 132.2 56.35 133.21 56.35 134.45C56.35 135.7 55.35 136.7 54.1 136.7Z" />
		<path id="Layer" class="shp5" d="M95.84 5.25L63.51 5.25C59.79 5.25 57 8.64 57.71 12.29L61.76 32.99L97.59 32.99L101.64 12.29C102.35 8.64 99.56 5.25 95.84 5.25L95.84 5.25Z" />
		<path id="Layer" class="shp6" d="M73.26 5.25L63.51 5.25C59.79 5.25 57 8.64 57.71 12.29L61.76 32.99L80.3 32.99C74.41 25.08 72.57 13.53 73.26 5.25L73.26 5.25Z" />
		<path id="Layer" class="shp5" d="M68.95 18.29C67.71 18.29 66.7 17.28 66.7 16.04C66.7 14.79 67.71 13.79 68.95 13.79C70.2 13.79 71.2 14.79 71.2 16.04C71.2 17.28 70.2 18.29 68.95 18.29Z" />
		<path id="Layer" class="shp6" d="M80.3 24.77C79.06 24.77 78.05 23.77 78.05 22.52C78.05 21.28 79.06 20.27 80.3 20.27C81.55 20.27 82.55 21.28 82.55 22.52C82.55 23.77 81.55 24.77 80.3 24.77Z" />
		<path id="Layer" class="shp6" d="M89.76 17.58C88.52 17.58 87.51 16.57 87.51 15.33C87.51 14.08 88.52 13.08 89.76 13.08C91.01 13.08 92.01 14.08 92.01 15.33C92.01 16.57 91.01 17.58 89.76 17.58Z" />
		<path id="Layer" class="shp7" d="M59.35 104.71C55.2 104.71 51.85 102.04 51.85 98.74C51.85 95.43 55.2 92.76 59.35 92.76C63.5 92.76 66.85 95.43 66.85 98.74C66.85 102.04 63.5 104.71 59.35 104.71Z" />
		<path id="Layer" class="shp7" d="M100 104.71C95.85 104.71 92.5 102.04 92.5 98.74C92.5 95.43 95.85 92.76 100 92.76C104.15 92.76 107.5 95.43 107.5 98.74C107.5 102.04 104.15 104.71 100 104.71Z" />
		<path id="Layer" class="shp8" d="M101.75 63.11L57.56 63.11C54.25 63.11 51.56 60.42 51.56 57.11C51.56 53.79 54.25 51.11 57.56 51.11L101.75 51.11C105.06 51.11 107.75 53.79 107.75 57.11C107.75 60.42 105.06 63.11 101.75 63.11L101.75 63.11Z" />
		<path id="Layer" class="shp0" d="M77.9 51.11L57.56 51.11C54.25 51.11 51.56 53.79 51.56 57.11C51.56 60.42 54.25 63.11 57.56 63.11L79.65 63.11C77.58 60.18 76.56 55.11 77.9 51.11Z" />
		<path id="Layer" fill-rule="evenodd" class="shp9" d="M132.45 4.21C143.52 4.21 152.52 13.21 152.52 24.28C152.52 30.31 150.56 35.99 146.7 41.17C145.96 42.16 144.55 42.37 143.55 41.62C142.56 40.88 142.35 39.47 143.09 38.48C146.36 34.09 148.02 29.32 148.02 24.28C148.02 15.7 141.04 8.71 132.45 8.71C121.59 8.71 109.72 14.22 101.22 24.62L100.02 30.74C100.12 30.76 102.57 30.55 104.81 32.37C106.27 30.18 107.92 28.17 109.77 26.35C116.18 20 124.66 16.21 132.45 16.21C136.9 16.21 140.52 19.83 140.52 24.28C140.52 28.28 138.7 35.99 126.49 42.67C120.86 45.76 114.07 48.03 106.77 49.28C106.59 49.65 106.38 50 106.14 50.33C108.1 51.68 109.44 53.87 109.66 56.37C118.74 54.62 128.31 51.17 135.74 45.66C136.74 44.92 138.15 45.13 138.89 46.13C139.63 47.12 139.42 48.53 138.42 49.27C129.96 55.54 119.03 59.35 108.65 61.12C107.24 63.65 104.54 65.36 101.45 65.36L99.39 65.36L99.39 73.96C99.39 75.5 100.23 76.9 101.59 77.62C117.11 85.88 126.75 101.91 126.75 119.47C126.75 119.47 126.75 119.47 126.75 119.48C126.75 119.49 126.75 119.5 126.75 119.51C126.74 130.33 123.18 140.52 116.45 148.97C112.59 153.82 106.77 156.6 100.49 156.6L58.26 156.6C53.46 156.6 48.81 154.93 45.16 151.89C44.2 151.1 44.07 149.68 44.87 148.72C45.66 147.77 47.08 147.64 48.04 148.43C50.88 150.8 54.51 152.1 58.26 152.1L100.49 152.1C105.39 152.1 109.93 149.94 112.93 146.17C117.11 140.92 119.94 134.93 121.31 128.52C107.63 132.52 68.35 101.2 37.11 112.26C36.71 114.62 36.5 117.03 36.5 119.48C36.5 126.82 38.39 134.06 41.96 140.42C42.57 141.51 42.18 142.88 41.1 143.49C40.01 144.1 38.64 143.71 38.03 142.63C34.09 135.59 32 127.59 32 119.48C32 102.35 41.27 86.07 57.16 77.62C58.52 76.9 59.36 75.5 59.36 73.96L59.36 65.35L57.27 65.35C52.72 65.35 49.02 61.65 49.02 57.1C49.02 54.29 50.44 51.8 52.6 50.31C51.74 49.11 51.23 47.64 51.23 46.06L51.23 38.04C51.23 34.01 54.5 30.74 58.52 30.74L58.73 30.74L55.21 12.72C54.74 10.32 55.36 7.86 56.91 5.97C58.47 4.08 60.76 3 63.21 3L95.54 3C97.99 3 100.28 4.08 101.84 5.97C103.39 7.86 104.02 10.32 103.55 12.72L102.83 16.39C111.34 8.63 122.03 4.21 132.45 4.21ZM99.48 81.6C96.65 80.09 94.89 77.16 94.89 73.96L94.89 65.36L63.86 65.36L63.86 73.96C63.86 77.17 62.1 80.09 59.27 81.6C48.97 87.07 41.54 96.34 38.3 107.16C51.65 103.41 66.05 106.21 79.14 110.55C87.3 106.62 95.14 104.45 102.46 104.11C108.83 103.8 115.76 104.9 120.88 108.7C117.91 97.22 110.26 87.33 99.48 81.6ZM97.58 89.92L97.58 92.99C97.58 94.23 96.57 95.24 95.33 95.24C94.09 95.24 93.08 94.23 93.08 92.99L93.08 89.92C93.08 88.68 94.09 87.67 95.33 87.67C96.57 87.67 97.58 88.68 97.58 89.92ZM112.93 29.54C110.8 31.65 108.94 34.06 107.4 36.71C107.48 37.14 107.52 37.58 107.52 38.04L107.52 44.57C113.76 43.36 119.52 41.36 124.33 38.73C134.5 33.16 136.02 27.28 136.02 24.28C136.02 22.31 134.42 20.71 132.45 20.71C125.82 20.71 118.52 24.01 112.93 29.54ZM60.39 8.83C59.69 9.68 59.41 10.78 59.62 11.86L63.32 30.74L95.44 30.74C95.67 29.56 98.37 15.73 99.13 11.86C99.34 10.78 99.06 9.68 98.36 8.83C97.67 7.99 96.64 7.5 95.54 7.5L63.21 7.5C62.11 7.5 61.08 7.99 60.39 8.83ZM122.25 119.48C122.25 110.59 107 103.89 85.3 112.73C89.79 114.4 94.06 116.17 98.02 117.81C108.13 122 117.69 125.95 120.84 123.85C121.76 123.23 122.24 121.79 122.25 119.57C122.25 119.54 122.25 119.51 122.25 119.48ZM65.67 89.92L65.67 92.99C65.67 94.23 64.66 95.24 63.42 95.24C62.18 95.24 61.17 94.23 61.17 92.99L61.17 89.92C61.17 88.68 62.18 87.67 63.42 87.67C64.66 87.67 65.67 88.68 65.67 89.92ZM101.45 53.36L57.27 53.36C55.2 53.36 53.52 55.04 53.52 57.11C53.52 59.17 55.2 60.86 57.27 60.86L101.45 60.86C103.56 60.86 105.2 59.11 105.2 57.11C105.2 55.04 103.52 53.36 101.45 53.36ZM58.52 35.24C56.98 35.24 55.73 36.49 55.73 38.04L55.73 46.06C55.73 47.6 56.98 48.86 58.52 48.86L100.23 48.86C101.53 48.86 102.62 47.97 102.93 46.77C103.09 46.08 103 46.9 103.02 38.04C103.02 36.63 101.86 35.24 100.23 35.24L58.52 35.24ZM85.28 94.37C83.79 96.08 81.64 97.06 79.38 97.06C77.11 97.06 74.96 96.08 73.47 94.37C72.66 93.44 72.75 92.02 73.69 91.2C74.63 90.38 76.05 90.48 76.87 91.42C77.5 92.15 78.41 92.56 79.38 92.56C80.34 92.56 81.25 92.15 81.89 91.42C82.7 90.48 84.12 90.38 85.06 91.2C86 92.02 86.09 93.44 85.28 94.37Z" />
	</g>
</svg>