<svg xmlns="http://www.w3.org/2000/svg" viewBox="0 0 289 149" width="289" height="149">
	<style>
		tspan { white-space:pre }
		.shp0 { fill: #8196f0 } 
		.shp1 { fill: #4262e9 } 
		.shp2 { fill: #ff9a83 } 
		.shp3 { fill: #ffa793 } 
		.shp4 { fill: #ff8164 } 
		.shp5 { fill: #ff8e9e } 
		.shp6 { fill: #000000 } 
	</style>
	<g id="Layer">
		<g id="Layer">
			<g id="Layer">
				<path id="Layer" class="shp0" d="M101.3 86.84L82.03 120.65L205.97 120.65C202.6 108.34 197.82 96.63 191.81 85.69C189.9 82.22 187.87 78.83 185.71 75.52C175.58 59.95 162.81 46.25 147.95 35.05C139.61 28.77 130.61 23.28 121.06 18.68C114.49 15.51 107.65 12.77 100.58 10.49C94.67 8.58 89.45 14.87 92.43 20.33L110.63 53.69C113.54 59.02 113.48 65.48 110.47 70.75L101.3 86.84Z" />
				<path id="Layer" class="shp1" d="M150.24 53.69L141.97 38.52C140.7 36.21 141.17 33.33 143.1 31.54C140.59 29.79 138.03 28.12 135.42 26.51C130.79 23.67 126 21.05 121.06 18.68C114.49 15.51 107.65 12.77 100.58 10.49C94.67 8.58 89.45 14.87 92.43 20.33L110.63 53.69C113.54 59.02 113.48 65.48 110.47 70.75L101.3 86.84L82.03 120.65L121.64 120.65L140.91 86.84L150.08 70.75C153.09 65.48 153.15 59.02 150.24 53.69Z" />
			</g>
			<g id="Layer">
				<path id="Layer" class="shp2" d="M205.97 120.65C202.6 108.34 197.82 96.63 191.81 85.69C162.08 78.09 130.86 78.48 101.3 86.84L82.03 120.65L205.97 120.65Z" />
				<path id="Layer" class="shp3" d="M144.63 80.32C130.04 80.66 115.48 82.83 101.3 86.84L82.03 120.65L121.64 120.65L140.91 86.84L144.63 80.32Z" />
			</g>
			<g id="Layer">
				<path id="Layer" class="shp0" d="" />
				<path id="Layer" class="shp0" d="M219.36 117.56C217.66 110.18 210.3 105.58 202.92 107.28C171.17 114.61 147.14 107.1 141.75 106.05C138.26 105.37 134.63 104.81 130.91 104.39C114.51 102.54 96.18 103.3 78.92 107.28C71.54 108.98 66.94 116.35 68.64 123.72C70.1 130.07 75.75 134.36 81.99 134.35C85.7 134.35 104.42 128.03 130.91 132.05C134.13 132.53 137.47 133.18 140.91 134C161.55 138.94 185.92 139.35 209.08 134C216.46 132.3 221.06 124.94 219.36 117.56Z" />
				<path id="Layer" class="shp1" d="M130.91 104.39C114.51 102.54 96.18 103.3 78.91 107.28C71.54 108.98 66.94 116.35 68.64 123.72C70.1 130.07 75.74 134.36 81.99 134.36C85.7 134.36 104.42 128.03 130.91 132.05C123.91 124.11 126.25 112.57 130.91 104.39Z" />
			</g>
			<path id="Layer" class="shp4" d="M185.25 55.67C183.4 54.54 181.37 53.67 179.21 53.12C178.66 50.96 177.79 48.93 176.65 47.08C175.27 44.82 172.04 44.82 170.66 47.08C169.53 48.93 168.66 50.96 168.1 53.12C165.95 53.67 163.92 54.54 162.06 55.67C160.94 56.36 160.37 57.52 160.37 58.67C160.37 59.82 160.94 60.98 162.06 61.67C163.92 62.8 165.95 63.67 168.1 64.23C168.66 66.38 169.53 68.41 170.66 70.26C172.04 72.52 175.27 72.52 176.65 70.26C177.79 68.41 178.66 66.38 179.21 64.23C181.37 63.67 183.4 62.8 185.25 61.67C187.5 60.29 187.5 57.05 185.25 55.67L185.25 55.67Z" />
			<g id="Layer">
				<path id="Layer" class="shp5" d="M135.67 90.27C130.73 90.27 126.72 93.46 126.72 97.39C126.72 101.32 130.73 104.51 135.67 104.51C140.6 104.51 144.61 101.32 144.61 97.39C144.61 93.46 140.6 90.27 135.67 90.27Z" />
				<path id="Layer" class="shp5" d="M184.15 90.27C179.21 90.27 175.2 93.46 175.2 97.39C175.2 101.32 179.21 104.51 184.15 104.51C189.08 104.51 193.09 101.32 193.09 97.39C193.09 93.46 189.08 90.27 184.15 90.27Z" />
			</g>
			<g id="Layer">
				<path id="Layer" fill-rule="evenodd" class="shp6" d="M203.2 104.89C213.07 103.13 222 110.69 222 120.65C222 128.14 216.9 134.54 209.6 136.23C207.3 136.76 204.94 137.24 202.59 137.67C201.35 137.89 200.16 137.07 199.94 135.83C199.71 134.58 200.54 133.39 201.78 133.17C204.06 132.76 206.34 132.29 208.57 131.77C213.79 130.57 217.43 126 217.43 120.65C217.43 113.34 210.68 107.83 203.43 109.51C182.44 114.35 163.54 113.44 143.87 108.86C126.01 104.71 101.48 104.42 79.43 109.51C74.21 110.71 70.57 115.29 70.57 120.63C70.57 126.87 75.56 132.07 81.99 132.07C85.53 132.07 109.58 124.14 141.45 131.78C157.9 135.72 175.82 136.53 192.88 134.5C194.13 134.35 195.27 135.25 195.42 136.5C195.57 137.75 194.67 138.89 193.42 139.04C176 141.11 157.52 140.33 140.38 136.22C109.25 128.76 86.82 136.64 81.99 136.64C73.02 136.64 66 129.4 66 120.63C66 113.14 71.1 106.74 78.4 105.05C82 104.22 85.71 103.52 89.49 102.95C110.18 66.65 109.09 68.81 109.76 66.72C110.15 65.52 111.44 64.86 112.64 65.24C113.84 65.63 114.5 66.91 114.12 68.11C113.3 70.67 112.99 70.95 105.99 83.23C132.59 76.6 160.45 76.26 187.2 82.24C186.09 80.38 184.96 78.55 183.8 76.76C182.38 74.59 180.88 72.4 179.3 70.23C179.08 70.65 178.85 71.05 178.6 71.46C176.33 75.16 170.99 75.17 168.71 71.46C167.68 69.76 166.85 67.96 166.26 66.07C164.38 65.48 162.57 64.65 160.87 63.61C157.16 61.35 157.16 56 160.87 53.72C161.87 53.12 162.9 52.58 163.97 52.12C145.8 33.69 123.77 20.36 99.88 12.66C95.93 11.39 92.44 15.57 94.44 19.24C114.25 55.55 113.8 54.12 114.61 57.91C114.88 59.14 114.1 60.36 112.86 60.62C111.62 60.89 110.41 60.1 110.15 58.87C109.51 55.93 110.36 57.95 90.43 21.42C86.45 14.13 93.48 5.79 101.28 8.31C126.02 16.29 148.62 30.06 167.16 48.86C167.61 47.83 168.13 46.84 168.71 45.88C170.98 42.18 176.33 42.17 178.6 45.88C179.64 47.58 180.46 49.38 181.06 51.27C182.94 51.87 184.75 52.69 186.44 53.73C190.15 55.99 190.16 61.34 186.44 63.61C184.95 64.53 183.38 65.27 181.74 65.85C190.84 78.04 197.93 91.1 203.2 104.89ZM172.61 69.07C173.1 69.87 174.21 69.87 174.7 69.07C175.73 67.38 176.51 65.56 177 63.66C177.2 62.85 177.83 62.22 178.64 62.02C180.54 61.53 182.36 60.75 184.06 59.72C184.86 59.23 184.86 58.11 184.06 57.62L184.06 57.62C182.37 56.59 180.55 55.82 178.64 55.33C177.83 55.12 177.21 54.49 177 53.69C176.51 51.78 175.73 49.95 174.7 48.27C174.21 47.47 173.1 47.47 172.61 48.27C171.58 49.95 170.81 51.78 170.31 53.69C170.12 54.45 169.49 55.12 168.67 55.33L168.67 55.33C166.76 55.82 164.94 56.59 163.26 57.62C162.45 58.11 162.46 59.23 163.26 59.72C164.95 60.75 166.77 61.53 168.67 62.01C169.48 62.22 170.11 62.85 170.32 63.66C170.81 65.56 171.58 67.38 172.61 69.07ZM144.91 104.41C162.73 108.56 179.6 109.63 198.68 105.85C196.26 99.62 193.44 93.52 190.27 87.67C161.55 80.5 131.36 80.89 102.82 88.79L95.18 102.2C113.58 100.1 131.64 101.33 144.91 104.41Z" />
				<g id="Layer">
					<path id="Layer" class="shp4" d="M93.88 71.08L95.62 71.08C96.79 71.08 97.83 70.24 97.97 69.08C98.14 67.69 97.06 66.5 95.71 66.5L93.97 66.5C92.8 66.5 91.75 67.34 91.61 68.5C91.44 69.89 92.52 71.08 93.88 71.08Z" />
					<path id="Layer" class="shp4" d="M83.52 71.08L85.26 71.08C86.43 71.08 87.47 70.24 87.62 69.08C87.78 67.69 86.7 66.5 85.35 66.5L83.61 66.5C82.44 66.5 81.39 67.34 81.25 68.5C81.08 69.89 82.16 71.08 83.52 71.08L83.52 71.08Z" />
					<path id="Layer" class="shp4" d="M89.61 70.86C88.35 70.86 87.33 71.89 87.33 73.15L87.33 74.98C87.33 76.24 88.35 77.26 89.61 77.26C90.87 77.26 91.9 76.24 91.9 74.98L91.9 73.15C91.9 71.89 90.87 70.86 89.61 70.86Z" />
					<path id="Layer" class="shp4" d="M89.61 66.9C90.87 66.9 91.9 65.88 91.9 64.62L91.9 62.79C91.9 61.53 90.87 60.5 89.61 60.5C88.35 60.5 87.33 61.53 87.33 62.79L87.33 64.62C87.33 65.88 88.35 66.9 89.61 66.9Z" />
					<path id="Layer" class="shp4" d="M212.71 85.49L214.53 85.49C215.8 85.49 216.82 84.47 216.82 83.2C216.82 81.94 215.8 80.92 214.53 80.92L212.71 80.92C211.44 80.92 210.42 81.94 210.42 83.2C210.42 84.47 211.44 85.49 212.71 85.49Z" />
					<path id="Layer" class="shp4" d="M202.35 85.49L204.18 85.49C205.44 85.49 206.46 84.47 206.46 83.2C206.46 81.94 205.44 80.92 204.18 80.92L202.35 80.92C201.09 80.92 200.06 81.94 200.06 83.2C200.06 84.47 201.09 85.49 202.35 85.49Z" />
					<path id="Layer" class="shp4" d="M208.44 85.18C207.18 85.18 206.16 86.21 206.16 87.47L206.16 89.3C206.16 90.56 207.18 91.58 208.44 91.58C209.7 91.58 210.73 90.56 210.73 89.3L210.73 87.47C210.73 86.21 209.7 85.18 208.44 85.18Z" />
					<path id="Layer" class="shp4" d="M208.44 81.22C209.7 81.22 210.73 80.2 210.73 78.94L210.73 77.11C210.73 75.85 209.7 74.82 208.44 74.82C207.18 74.82 206.16 75.85 206.16 77.11L206.16 78.94C206.16 80.2 207.18 81.22 208.44 81.22Z" />
				</g>
				<path id="Layer" class="shp6" d="M140.88 85.81C139.62 85.81 138.59 86.83 138.59 88.1L138.59 91.75C138.59 93.02 139.62 94.04 140.88 94.04C142.14 94.04 143.16 93.02 143.16 91.75L143.16 88.1C143.16 86.83 142.14 85.81 140.88 85.81Z" />
				<path id="Layer" class="shp6" d="M178.93 85.81C177.67 85.81 176.65 86.83 176.65 88.1L176.65 91.75C176.65 93.02 177.67 94.04 178.93 94.04C180.19 94.04 181.22 93.02 181.22 91.75L181.22 88.1C181.22 86.83 180.19 85.81 178.93 85.81Z" />
				<path id="Layer" class="shp6" d="M166.42 89.92C165.47 89.09 164.03 89.19 163.2 90.14C161.45 92.15 158.35 92.14 156.61 90.14C155.78 89.19 154.34 89.09 153.39 89.92C152.44 90.75 152.34 92.2 153.17 93.15C156.73 97.24 163.08 97.23 166.64 93.15C167.47 92.2 167.37 90.75 166.42 89.92Z" />
			</g>
		</g>
	</g>
</svg>